<?xml version="1.0" encoding="UTF-8" standalone="no"?>
<svg
   viewBox="0 0 1280 640"
   width="1280"
   height="640"
   version="1.1"
   id="svg72"
   sodipodi:docname="social-preview.svg"
   inkscape:version="1.4.3 (0d15f75042, 2025-12-25)"
   xmlns:inkscape="http://www.inkscape.org/namespaces/inkscape"
   xmlns:sodipodi="http://sodipodi.sourceforge.net/DTD/sodipodi-0.dtd"
   xmlns:xlink="http://www.w3.org/1999/xlink"
   xmlns="http://www.w3.org/2000/svg"
   xmlns:svg="http://www.w3.org/2000/svg">
  <sodipodi:namedview
     id="namedview72"
     pagecolor="#ffffff"
     bordercolor="#000000"
     borderopacity="0.25"
     inkscape:showpageshadow="2"
     inkscape:pageopacity="0.0"
     inkscape:pagecheckerboard="0"
     inkscape:deskcolor="#d1d1d1"
     inkscape:zoom="0.95390625"
     inkscape:cx="640"
     inkscape:cy="319.73792"
     inkscape:window-width="1707"
     inkscape:window-height="932"
     inkscape:window-x="0"
     inkscape:window-y="0"
     inkscape:window-maximized="1"
     inkscape:current-layer="svg72" />
  <defs
     id="defs25">
    <!-- Background gradient -->
    <linearGradient
       id="bgGrad"
       x1="0%"
       y1="0%"
       x2="100%"
       y2="100%">
      <stop
         offset="0%"
         style="stop-color:#0e0e1c"
         id="stop1" />
      <stop
         offset="100%"
         style="stop-color:#080810"
         id="stop2" />
    </linearGradient>
    <!-- Gold gradient for text/accents -->
    <linearGradient
       id="goldH"
       x1="0%"
       y1="0%"
       x2="100%"
       y2="0%">
      <stop
         offset="0%"
         style="stop-color:#ffe099"
         id="stop3" />
      <stop
         offset="45%"
         style="stop-color:#c8a96e"
         id="stop4" />
      <stop
         offset="100%"
         style="stop-color:#8a6430"
         id="stop5" />
    </linearGradient>
    <linearGradient
       id="goldV2"
       x1="0%"
       y1="0%"
       x2="0%"
       y2="100%">
      <stop
         offset="0%"
         style="stop-color:#ffe099"
         id="stop6" />
      <stop
         offset="45%"
         style="stop-color:#c8a96e"
         id="stop7" />
      <stop
         offset="100%"
         style="stop-color:#8a6430"
         id="stop8" />
    </linearGradient>
    <!-- Gear gold -->
    <linearGradient
       id="gearGold"
       x1="-67"
       y1="-112"
       x2="67"
       y2="112"
       gradientUnits="userSpaceOnUse">
      <stop
         offset="0%"
         style="stop-color:#ffe099"
         id="stop9" />
      <stop
         offset="40%"
         style="stop-color:#c8a96e"
         id="stop10" />
      <stop
         offset="100%"
         style="stop-color:#7a5420"
         id="stop11" />
    </linearGradient>
    <linearGradient
       id="gV"
       x1="0%"
       y1="0%"
       x2="0%"
       y2="100%">
      <stop
         offset="0%"
         style="stop-color:#ffe099"
         id="stop12" />
      <stop
         offset="45%"
         style="stop-color:#c8a96e"
         id="stop13" />
      <stop
         offset="100%"
         style="stop-color:#8a6430"
         id="stop14" />
    </linearGradient>
    <radialGradient
       id="faceBg"
       cx="0"
       cy="-21"
       r="109"
       gradientUnits="userSpaceOnUse">
      <stop
         offset="0%"
         style="stop-color:#181828"
         id="stop15" />
      <stop
         offset="100%"
         style="stop-color:#07070f"
         id="stop16" />
    </radialGradient>
    <radialGradient
       id="centerGlow"
       cx="0"
       cy="0"
       r="72"
       gradientUnits="userSpaceOnUse">
      <stop
         offset="0%"
         style="stop-color:#c8a96e;stop-opacity:0.18"
         id="stop17" />
      <stop
         offset="100%"
         style="stop-color:#c8a96e;stop-opacity:0"
         id="stop18" />
    </radialGradient>
    <filter
       id="tglow"
       x="-0.46153846"
       y="-0.5"
       width="1.9230769"
       height="2">
      <feGaussianBlur
         stdDeviation="5"
         result="blur"
         id="feGaussianBlur18" />
      <feMerge
         id="feMerge19">
        <feMergeNode
           in="blur"
           id="feMergeNode18" />
        <feMergeNode
           in="SourceGraphic"
           id="feMergeNode19" />
      </feMerge>
    </filter>
    <filter
       id="gearglow"
       x="-0.032142869"
       y="-0.032142869"
       width="1.0642857"
       height="1.0642857">
      <feGaussianBlur
         stdDeviation="3"
         result="blur"
         id="feGaussianBlur19" />
      <feMerge
         id="feMerge21">
        <feMergeNode
           in="blur"
           id="feMergeNode20" />
        <feMergeNode
           in="SourceGraphic"
           id="feMergeNode21" />
      </feMerge>
    </filter>
    <filter
       id="softglow"
       x="-20%"
       y="-20%"
       width="140%"
       height="140%">
      <feGaussianBlur
         stdDeviation="18"
         result="blur"
         id="feGaussianBlur21" />
      <feMerge
         id="feMerge23">
        <feMergeNode
           in="blur"
           id="feMergeNode22" />
        <feMergeNode
           in="SourceGraphic"
           id="feMergeNode23" />
      </feMerge>
    </filter>
    <linearGradient
       id="divider"
       x1="0%"
       y1="0%"
       x2="0%"
       y2="100%">
      <stop
         offset="0%"
         style="stop-color:#c8a96e;stop-opacity:0"
         id="stop23" />
      <stop
         offset="40%"
         style="stop-color:#c8a96e;stop-opacity:0.5"
         id="stop24" />
      <stop
         offset="100%"
         style="stop-color:#c8a96e;stop-opacity:0"
         id="stop25" />
    </linearGradient>
    <linearGradient
       inkscape:collect="always"
       xlink:href="#gV"
       id="linearGradient73"
       x1="-46.07686"
       y1="-115.19215"
       x2="-46.07686"
       y2="-23.038429"
       gradientTransform="scale(1.9198691,0.52086885)"
       gradientUnits="userSpaceOnUse" />
    <linearGradient
       inkscape:collect="always"
       xlink:href="#gV"
       id="linearGradient74"
       x1="-40.620193"
       y1="-35.081074"
       x2="-40.620193"
       y2="46.159308"
       gradientTransform="scale(0.61545745,1.6248077)"
       gradientUnits="userSpaceOnUse" />
  </defs>
  <!-- Background -->
  <rect
     width="1280"
     height="640"
     fill="url(#bgGrad)"
     id="rect25" />
  <!-- Subtle radial glow behind logo -->
  <circle
     cx="240"
     cy="320"
     r="260"
     fill="#c8a96e"
     opacity="0.04"
     id="circle25" />
  <!-- Decorative rings -->
  <circle
     cx="240"
     cy="320"
     r="220"
     fill="none"
     stroke="#c8a96e"
     stroke-width="0.5"
     opacity="0.07"
     id="circle26" />
  <!-- Vertical gold divider -->
  <rect
     x="490"
     y="60"
     width="1"
     height="520"
     fill="url(#divider)"
     id="rect27" />
  <!-- ── LOGO (centered left, scaled 0.38x from 512 origin → placed at 240,320) ── -->
  <g
     transform="matrix(1.5584821,0,0,1.5584821,240,320)"
     id="g55">
    <!-- Gear -->
    <path
       d="m -22.7761,-85.0015 13.9887,-26.6532 a 112,112 0 0 1 17.5748,0 l -0.0473,24.0898 a 88,88 0 0 1 14.036,2.5634 v 0 l 25.4411,-16.0881 a 112,112 0 0 1 15.2203,8.7875 l -12.0859,20.8387 a 88,88 0 0 1 10.8738,9.238 v 0 l 30.0767,-1.2121 a 112,112 0 0 1 8.7875,15.2203 l -20.8861,12.0039 a 88,88 0 0 1 4.798,13.4372 v 0 l 26.6532,13.9887 a 112,112 0 0 1 0,17.5748 L 87.5649,8.7401 a 88,88 0 0 1 -2.5634,14.036 v 0 l 16.0881,25.4411 A 112,112 0 0 1 92.3021,63.4375 L 71.4634,51.3516 a 88,88 0 0 1 -9.238,10.8738 v 0 l 1.2121,30.0767 a 112,112 0 0 1 -15.2203,8.7875 L 36.2133,80.2035 a 88,88 0 0 1 -13.4372,4.798 v 0 L 8.7874,111.6547 a 112,112 0 0 1 -17.5748,0 l 0.0473,-24.0898 a 88,88 0 0 1 -14.036,-2.5634 v 0 l -25.4411,16.0881 a 112,112 0 0 1 -15.2203,-8.7875 l 12.0859,-20.8387 a 88,88 0 0 1 -10.8738,-9.238 v 0 l -30.0767,1.2121 a 112,112 0 0 1 -8.7875,-15.2203 l 20.8861,-12.0039 a 88,88 0 0 1 -4.798,-13.4372 v 0 L -111.6547,8.7874 a 112,112 0 0 1 0,-17.5748 l 24.0898,0.0473 a 88,88 0 0 1 2.5634,-14.036 v 0 l -16.0881,-25.4411 a 112,112 0 0 1 8.7875,-15.2203 l 20.8387,12.0859 a 88,88 0 0 1 9.238,-10.8738 v 0 l -1.2121,-30.0767 a 112,112 0 0 1 15.2203,-8.7875 l 12.0039,20.8861 a 88,88 0 0 1 13.4372,-4.798 z"
       fill="url(#gearGold)"
       filter="url(#gearglow)"
       id="path27"
       style="fill:url(#gearGold)" />
    <!-- Gear face -->
    <circle
       r="88"
       fill="url(#faceBg)"
       id="circle28"
       style="fill:url(#faceBg)"
       cx="0"
       cy="0" />
    <circle
       r="88"
       fill="none"
       stroke="#c8a96e"
       stroke-width="3"
       opacity="0.65"
       id="circle29"
       cx="0"
       cy="0" />
    <circle
       r="84"
       fill="none"
       stroke="#050508"
       stroke-width="5"
       opacity="0.75"
       id="circle30"
       cx="0"
       cy="0" />
    <circle
       r="80"
       fill="none"
       stroke="#c8a96e"
       stroke-width="1"
       opacity="0.22"
       id="circle31"
       cx="0"
       cy="0" />
    <circle
       r="72"
       fill="url(#centerGlow)"
       id="circle32"
       style="fill:url(#centerGlow)"
       cx="0"
       cy="0" />
    <!-- Tick marks -->
    <g
       stroke="#c8a96e"
       stroke-linecap="round"
       opacity="0.45"
       id="g43">
      <line
         x1="0"
         y1="-80"
         x2="0"
         y2="-70"
         stroke-width="2.2"
         id="line32" />
      <line
         x1="40"
         y1="-69.300003"
         x2="35"
         y2="-60.599998"
         stroke-width="1.6"
         id="line33" />
      <line
         x1="69.300003"
         y1="-40"
         x2="60.599998"
         y2="-35"
         stroke-width="1.6"
         id="line34" />
      <line
         x1="80"
         y1="0"
         x2="70"
         y2="0"
         stroke-width="2.2"
         id="line35" />
      <line
         x1="69.300003"
         y1="40"
         x2="60.599998"
         y2="35"
         stroke-width="1.6"
         id="line36" />
      <line
         x1="40"
         y1="69.300003"
         x2="35"
         y2="60.599998"
         stroke-width="1.6"
         id="line37" />
      <line
         x1="0"
         y1="80"
         x2="0"
         y2="70"
         stroke-width="2.2"
         id="line38" />
      <line
         x1="-40"
         y1="69.300003"
         x2="-35"
         y2="60.599998"
         stroke-width="1.6"
         id="line39" />
      <line
         x1="-69.300003"
         y1="40"
         x2="-60.599998"
         y2="35"
         stroke-width="1.6"
         id="line40" />
      <line
         x1="-80"
         y1="0"
         x2="-70"
         y2="0"
         stroke-width="2.2"
         id="line41" />
      <line
         x1="-69.300003"
         y1="-40"
         x2="-60.599998"
         y2="-35"
         stroke-width="1.6"
         id="line42" />
      <line
         x1="-40"
         y1="-69.300003"
         x2="-35"
         y2="-60.599998"
         stroke-width="1.6"
         id="line43" />
    </g>
    <!-- Centre hole -->
    <circle
       r="19"
       fill="#050508"
       stroke="#c8a96e"
       stroke-width="2.5"
       opacity="0.75"
       id="circle43"
       cx="0"
       cy="0" />
    <circle
       r="10"
       fill="#07070f"
       stroke="#c8a96e"
       stroke-width="0.8"
       opacity="0.3"
       id="circle44"
       cx="0"
       cy="0" />
    <!-- Hex bolts -->
    <g
       fill="#c8a96e"
       opacity="0.28"
       id="g50">
      <circle
         cx="0"
         cy="-15"
         r="2.2"
         id="circle45" />
      <circle
         cx="13"
         cy="-7.5"
         r="2.2"
         id="circle46" />
      <circle
         cx="13"
         cy="7.5"
         r="2.2"
         id="circle47" />
      <circle
         cx="0"
         cy="15"
         r="2.2"
         id="circle48" />
      <circle
         cx="-13"
         cy="7.5"
         r="2.2"
         id="circle49" />
      <circle
         cx="-13"
         cy="-7.5"
         r="2.2"
         id="circle50" />
    </g>
    <!-- T crossbar -->
    <rect
       x="-46"
       y="-48"
       width="92"
       height="24"
       rx="5.5"
       fill="url(#gV)"
       filter="url(#tglow)"
       id="rect50"
       style="fill:url(#linearGradient73)" />
    <!-- T stem -->
    <rect
       x="-13"
       y="-24"
       width="26"
       height="66"
       rx="5.5"
       fill="url(#gV)"
       filter="url(#tglow)"
       id="rect51"
       style="fill:url(#linearGradient74)" />
    <!-- T highlights -->
    <rect
       x="-46"
       y="-48"
       width="92"
       height="5.5"
       rx="4"
       fill="#ffe8b0"
       opacity="0.32"
       id="rect52" />
    <rect
       x="-46"
       y="-48"
       width="5.5"
       height="24"
       rx="4"
       fill="#ffe8b0"
       opacity="0.18"
       id="rect53" />
    <rect
       x="-13"
       y="-24"
       width="7"
       height="66"
       rx="4"
       fill="#ffe8b0"
       opacity="0.15"
       id="rect54" />
    <rect
       x="-3.5"
       y="-26"
       width="7"
       height="4"
       rx="1.5"
       fill="#07070f"
       opacity="0.55"
       id="rect55" />
  </g>
  <!-- ── RIGHT SIDE CONTENT ── -->
  <!-- App name -->
  <text
     x="548"
     y="175"
     font-family="'Segoe UI', 'Helvetica Neue', Arial, sans-serif"
     font-size="96"
     font-weight="700"
     letter-spacing="-2"
     fill="url(#goldH)"
     id="text55">Torque</text>
  <!-- Tagline -->
  <text
     x="550"
     y="228"
     font-family="'Segoe UI', 'Helvetica Neue', Arial, sans-serif"
     font-size="26"
     fill="#a89070"
     letter-spacing="0.5"
     id="text56">Vehicle Fleet Manager for Android</text>
  <!-- Short description -->
  <text
     x="550"
     y="282"
     font-family="'Segoe UI', 'Helvetica Neue', Arial, sans-serif"
     font-size="21"
     fill="#7a6a5a"
     letter-spacing="0.2"
     id="text57">Track insurance, fuel, service &amp; more — encrypted locally.</text>
  <!-- Gold rule -->
  <rect
     x="550"
     y="302"
     width="660"
     height="1.5"
     fill="url(#goldH)"
     opacity="0.25"
     id="rect57" />
  <!-- Feature pills — row 1 -->
  <g
     font-family="'Segoe UI', 'Helvetica Neue', Arial, sans-serif"
     font-size="18"
     fill="#c8a96e"
     id="g61">
    <!-- pill helper: rect + text -->
    <rect
       x="550"
       y="320"
       width="195"
       height="38"
       rx="19"
       fill="#c8a96e"
       fill-opacity="0.08"
       stroke="#c8a96e"
       stroke-width="0.8"
       stroke-opacity="0.3"
       id="rect58" />
    <text
       x="647"
       y="344"
       text-anchor="middle"
       fill="#c8a96e"
       id="text58">🛡 Insurance Alerts</text>
    <rect
       x="758"
       y="320"
       width="168"
       height="38"
       rx="19"
       fill="#c8a96e"
       fill-opacity="0.08"
       stroke="#c8a96e"
       stroke-width="0.8"
       stroke-opacity="0.3"
       id="rect59" />
    <text
       x="842"
       y="344"
       text-anchor="middle"
       fill="#c8a96e"
       id="text59">⛽ Fuel Tracking</text>
    <rect
       x="940"
       y="320"
       width="168"
       height="38"
       rx="19"
       fill="#c8a96e"
       fill-opacity="0.08"
       stroke="#c8a96e"
       stroke-width="0.8"
       stroke-opacity="0.3"
       id="rect60" />
    <text
       x="1024"
       y="344"
       text-anchor="middle"
       fill="#c8a96e"
       id="text60">🔧 Service Logs</text>
    <rect
       x="1122"
       y="320"
       width="148"
       height="38"
       rx="19"
       fill="#c8a96e"
       fill-opacity="0.08"
       stroke="#c8a96e"
       stroke-width="0.8"
       stroke-opacity="0.3"
       id="rect61" />
    <text
       x="1196"
       y="344"
       text-anchor="middle"
       fill="#c8a96e"
       id="text61">📍 GPS Park</text>
  </g>
  <!-- Feature pills — row 2 -->
  <g
     font-family="'Segoe UI', 'Helvetica Neue', Arial, sans-serif"
     font-size="18"
     fill="#c8a96e"
     id="g65">
    <rect
       x="550"
       y="372"
       width="182"
       height="38"
       rx="19"
       fill="#c8a96e"
       fill-opacity="0.08"
       stroke="#c8a96e"
       stroke-width="0.8"
       stroke-opacity="0.3"
       id="rect62" />
    <text
       x="641"
       y="396"
       text-anchor="middle"
       fill="#c8a96e"
       id="text62">🔒 AES-256 Encrypt</text>
    <rect
       x="746"
       y="372"
       width="190"
       height="38"
       rx="19"
       fill="#c8a96e"
       fill-opacity="0.08"
       stroke="#c8a96e"
       stroke-width="0.8"
       stroke-opacity="0.3"
       id="rect63" />
    <text
       x="841"
       y="396"
       text-anchor="middle"
       fill="#c8a96e"
       id="text63">☁ Google Drive Backup</text>
    <rect
       x="950"
       y="372"
       width="170"
       height="38"
       rx="19"
       fill="#c8a96e"
       fill-opacity="0.08"
       stroke="#c8a96e"
       stroke-width="0.8"
       stroke-opacity="0.3"
       id="rect64" />
    <text
       x="1035"
       y="396"
       text-anchor="middle"
       fill="#c8a96e"
       id="text64">🤳 Biometric Auth</text>
    <rect
       x="1134"
       y="372"
       width="136"
       height="38"
       rx="19"
       fill="#c8a96e"
       fill-opacity="0.08"
       stroke="#c8a96e"
       stroke-width="0.8"
       stroke-opacity="0.3"
       id="rect65" />
    <text
       x="1202"
       y="396"
       text-anchor="middle"
       fill="#c8a96e"
       id="text65">📸 Photo Log</text>
  </g>
  <!-- Bottom rule -->
  <rect
     x="550"
     y="430"
     width="660"
     height="1"
     fill="url(#goldH)"
     opacity="0.15"
     id="rect66" />
  <!-- Tech stack badges -->
  <g
     font-family="'Segoe UI', 'Helvetica Neue', Arial, sans-serif"
     font-size="16"
     fill="#5a4e40"
     id="g71">
    <text
       x="550"
       y="462"
       id="text66">Built with</text>
    <rect
       x="624"
       y="444"
       width="82"
       height="26"
       rx="5"
       fill="#c8a96e"
       fill-opacity="0.1"
       stroke="#c8a96e"
       stroke-width="0.6"
       stroke-opacity="0.25"
       id="rect67" />
    <text
       x="665"
       y="462"
       text-anchor="middle"
       fill="#8a7a60"
       id="text67">React 19</text>
    <rect
       x="716"
       y="444"
       width="74"
       height="26"
       rx="5"
       fill="#c8a96e"
       fill-opacity="0.1"
       stroke="#c8a96e"
       stroke-width="0.6"
       stroke-opacity="0.25"
       id="rect68" />
    <text
       x="753"
       y="462"
       text-anchor="middle"
       fill="#8a7a60"
       id="text68">Vite 8</text>
    <rect
       x="800"
       y="444"
       width="104"
       height="26"
       rx="5"
       fill="#c8a96e"
       fill-opacity="0.1"
       stroke="#c8a96e"
       stroke-width="0.6"
       stroke-opacity="0.25"
       id="rect69" />
    <text
       x="852"
       y="462"
       text-anchor="middle"
       fill="#8a7a60"
       id="text69">Capacitor 8</text>
    <rect
       x="914"
       y="444"
       width="86"
       height="26"
       rx="5"
       fill="#c8a96e"
       fill-opacity="0.1"
       stroke="#c8a96e"
       stroke-width="0.6"
       stroke-opacity="0.25"
       id="rect70" />
    <text
       x="957"
       y="462"
       text-anchor="middle"
       fill="#8a7a60"
       id="text70">Leaflet.js</text>
    <rect
       x="1010"
       y="444"
       width="78"
       height="26"
       rx="5"
       fill="#c8a96e"
       fill-opacity="0.1"
       stroke="#c8a96e"
       stroke-width="0.6"
       stroke-opacity="0.25"
       id="rect71" />
    <text
       x="1049"
       y="462"
       text-anchor="middle"
       fill="#8a7a60"
       id="text71">Android</text>
  </g>
  <!-- GitHub URL -->
  <text
     x="550"
     y="510"
     font-family="'Segoe UI', 'Helvetica Neue', Arial, sans-serif"
     font-size="18"
     fill="#4a3e30"
     letter-spacing="0.3"
     id="text72">github.com/torqueapp2828/torque-app</text>
  <!-- Bottom gold accent bar -->
  <rect
     x="0"
     y="624"
     width="1280"
     height="16"
     fill="url(#goldH)"
     opacity="0.5"
     rx="0"
     id="rect72" />
</svg>
